<svg width="16" height="15" viewBox="0 0 16 15" fill="none" xmlns="http://www.w3.org/2000/svg">
    <path d="M7.36463 14.1599C7.75728 14.5483 8.39043 14.5449 8.77882 14.1522L15.108 7.75365C15.4964 7.361 15.4929 6.72785 15.1003 6.33946C14.7076 5.95107 14.0745 5.95452 13.6861 6.34717L8.06016 12.0348L2.37255 6.40886C1.9799 6.02047 1.34674 6.02392 0.958352 6.41657C0.569963 6.80922 0.573416 7.44237 0.966064 7.83076L7.36463 14.1599ZM8.99998 0.994549C8.99696 0.442272 8.54681 -0.0029949 7.99454 1.6501e-05C7.44226 0.0030279 6.99699 0.453177 7.00001 1.00545L8.99998 0.994549ZM9.06786 13.4435L8.99998 0.994549L7.00001 1.00545L7.06789 13.4544L9.06786 13.4435Z"
          fill="currentColor"/>
</svg>
