<svg width="6" height="7" viewBox="0 0 6 7" fill="none" xmlns="http://www.w3.org/2000/svg">
    <path fill-rule="evenodd" clip-rule="evenodd"
          d="M0.21967 0.71967C0.512563 0.426777 0.987437 0.426777 1.28033 0.71967L3 2.43934L4.71967 0.71967C5.01256 0.426777 5.48744 0.426777 5.78033 0.71967C6.07322 1.01256 6.07322 1.48744 5.78033 1.78033L4.06066 3.5L5.78033 5.21967C6.07322 5.51256 6.07322 5.98744 5.78033 6.28033C5.48744 6.57322 5.01256 6.57322 4.71967 6.28033L3 4.56066L1.28033 6.28033C0.987437 6.57322 0.512563 6.57322 0.21967 6.28033C-0.0732233 5.98744 -0.0732233 5.51256 0.21967 5.21967L1.93934 3.5L0.21967 1.78033C-0.0732233 1.48744 -0.0732233 1.01256 0.21967 0.71967Z"
          fill="currentColor"/>
</svg>
