<svg width="24" height="24" viewBox="0 0 24 24" fill="none" xmlns="http://www.w3.org/2000/svg">
    <path fill-rule="evenodd" clip-rule="evenodd"
          d="M7.36612 7.36612C7.85427 6.87796 8.64573 6.87796 9.13388 7.36612L12 10.2322L14.8661 7.36612C15.3543 6.87796 16.1457 6.87796 16.6339 7.36612C17.122 7.85427 17.122 8.64573 16.6339 9.13388L13.7678 12L16.6339 14.8661C17.122 15.3543 17.122 16.1457 16.6339 16.6339C16.1457 17.122 15.3543 17.122 14.8661 16.6339L12 13.7678L9.13388 16.6339C8.64573 17.122 7.85427 17.122 7.36612 16.6339C6.87796 16.1457 6.87796 15.3543 7.36612 14.8661L10.2322 12L7.36612 9.13388C6.87796 8.64573 6.87796 7.85427 7.36612 7.36612Z"
          fill="currentColor"/>
</svg>
