<svg width="24" height="24" viewBox="0 0 24 24" fill="none" xmlns="http://www.w3.org/2000/svg">
    <path fill-rule="evenodd" clip-rule="evenodd"
          d="M18.5 5C18.5 4.17157 17.8284 3.5 17 3.5C16.1716 3.5 15.5 4.17157 15.5 5V17C15.5 17.8284 16.1716 18.5 17 18.5C17.8284 18.5 18.5 17.8284 18.5 17V5ZM12 7.5C12.8284 7.5 13.5 8.17157 13.5 9V17C13.5 17.8284 12.8284 18.5 12 18.5C11.1716 18.5 10.5 17.8284 10.5 17V9C10.5 8.17157 11.1716 7.5 12 7.5ZM7 11.5C7.82843 11.5 8.5 12.1716 8.5 13L8.5 17C8.5 17.8284 7.82843 18.5 7 18.5C6.17157 18.5 5.5 17.8284 5.5 17V13C5.5 12.1716 6.17157 11.5 7 11.5Z"
          fill="currentColor"/>
</svg>
