<svg width="24" height="24" viewBox="0 0 24 24" fill="none" xmlns="http://www.w3.org/2000/svg">
    <path d="M15.5 3L15.5 5.625M8.5 3L8.5 5.625" stroke="currentColor" stroke-width="1.5" stroke-linecap="round"/>
    <path fill-rule="evenodd" clip-rule="evenodd"
          d="M13.4706 4H10.4118L10.4118 5.76472C10.4118 6.86929 9.51639 7.76472 8.41182 7.76472C7.30725 7.76472 6.41182 6.86929 6.41182 5.76472L6.41182 4.09396C5.67913 4.18987 5.16693 4.38368 4.77531 4.77531C4 5.55061 4 6.79845 4 9.29412V13.7059C4 16.2016 4 17.4494 4.77531 18.2247C5.55061 19 6.79845 19 9.29412 19H14.5882C17.0839 19 18.3317 19 19.107 18.2247C19.8824 17.4494 19.8824 16.2016 19.8824 13.7059V13.7059V9.29412V9.29411C19.8824 6.79844 19.8824 5.55061 19.107 4.77531C18.7154 4.3837 18.2033 4.18989 17.4706 4.09398L17.4706 5.76472C17.4706 6.86929 16.5752 7.76472 15.4706 7.76472C14.3661 7.76472 13.4706 6.86929 13.4706 5.76472L13.4706 4ZM7.41181 11.0588C7.41181 10.5065 7.85953 10.0588 8.41181 10.0588L15.4706 10.0588C16.0229 10.0588 16.4706 10.5065 16.4706 11.0588C16.4706 11.6111 16.0229 12.0588 15.4706 12.0588H8.41181C7.85953 12.0588 7.41181 11.6111 7.41181 11.0588ZM8.41181 13.5882C7.85953 13.5882 7.41181 14.036 7.41181 14.5882C7.41181 15.1405 7.85953 15.5882 8.41181 15.5882H15.4706C16.0229 15.5882 16.4706 15.1405 16.4706 14.5882C16.4706 14.036 16.0229 13.5882 15.4706 13.5882H8.41181Z"
          fill="currentColor"/>
</svg>
