<svg width="2" height="12" viewBox="0 0 2 12" fill="none" xmlns="http://www.w3.org/2000/svg">
<path d="M1 9.88235C1.26522 9.88235 1.51957 9.99391 1.70711 10.1925C1.89464 10.391 2 10.6604 2 10.9412C2 11.222 1.89464 11.4913 1.70711 11.6899C1.51957 11.8884 1.26522 12 1 12C0.734784 12 0.480429 11.8884 0.292893 11.6899C0.105357 11.4913 0 11.222 0 10.9412C0 10.6604 0.105357 10.391 0.292893 10.1925C0.480429 9.99391 0.734784 9.88235 1 9.88235ZM1 4.94118C1.26522 4.94118 1.51957 5.05273 1.70711 5.2513C1.89464 5.44987 2 5.71918 2 6C2 6.28082 1.89464 6.55013 1.70711 6.7487C1.51957 6.94727 1.26522 7.05882 1 7.05882C0.734784 7.05882 0.480429 6.94727 0.292893 6.7487C0.105357 6.55013 0 6.28082 0 6C0 5.71918 0.105357 5.44987 0.292893 5.2513C0.480429 5.05273 0.734784 4.94118 1 4.94118ZM1 0C1.26522 0 1.51957 0.111554 1.70711 0.310122C1.89464 0.50869 2 0.778006 2 1.05882C2 1.33964 1.89464 1.60896 1.70711 1.80752C1.51957 2.00609 1.26522 2.11765 1 2.11765C0.734784 2.11765 0.480429 2.00609 0.292893 1.80752C0.105357 1.60896 0 1.33964 0 1.05882C0 0.778006 0.105357 0.50869 0.292893 0.310122C0.480429 0.111554 0.734784 0 1 0Z" fill="#667085"/>
</svg>
