<svg width="24" height="24" viewBox="0 0 24 24" fill="none" xmlns="http://www.w3.org/2000/svg">
    <g clip-path="url(#clip0_18_789)">
        <path d="M4.44784 9.75823L5.22401 9.88073C5.63898 8.29652 6.53599 6.90055 7.75369 5.86743C9.04908 4.76858 10.7093 4.07806 12.5402 4.00635C14.7136 3.9207 16.7175 4.72575 18.1994 6.0955C19.6807 7.46524 20.6401 9.39969 20.7255 11.5728C20.7573 12.3892 20.6654 13.1789 20.4665 13.9226C20.3176 14.4785 20.1078 15.0162 19.8407 15.526L19.8215 15.4948C19.6291 15.1902 19.3582 14.943 19.0373 14.7791C18.8929 14.7053 18.7402 14.6489 18.5825 14.6108C18.7469 14.2652 18.8813 13.9027 18.9819 13.5259C19.147 12.9091 19.2182 12.2709 19.193 11.6329C19.1243 9.88039 18.3521 8.32175 17.1597 7.21925C15.9672 6.11708 14.3531 5.46972 12.6003 5.53877C11.1269 5.59653 9.78972 6.15326 8.74531 7.03931C7.80183 7.83972 7.0977 8.90869 6.74779 10.1214L7.37125 10.2197C7.58305 10.2525 7.72846 10.4511 7.6956 10.6629C7.68132 10.7555 7.63517 10.8358 7.57011 10.8936L5.82788 12.4449C5.66753 12.5877 5.4212 12.5734 5.27812 12.4127C5.25389 12.3858 5.2343 12.356 5.21903 12.3251L4.05345 10.3385C3.94489 10.1536 4.00697 9.91558 4.19188 9.80703C4.27222 9.75989 4.36252 9.74528 4.44784 9.75823ZM12.2062 14.1072C12.1212 14.1008 12.0688 14.0922 12.006 14.0823L11.6548 14.0318L11.438 13.9953C11.3676 13.983 11.2976 13.9687 11.2282 13.9535C11.1545 13.9372 11.0864 13.9203 11.0253 13.904L10.943 13.8821V12.5249L11.3268 12.5565L11.6083 12.5731L11.9041 12.586L12.2032 12.5957L12.4944 12.601L12.7646 12.6023C12.8469 12.6023 12.919 12.5996 12.9807 12.594C13.0441 12.5884 13.1009 12.5797 13.1513 12.5681C13.1972 12.5581 13.2373 12.5442 13.2712 12.5279C13.3004 12.514 13.3246 12.4971 13.3436 12.4781C13.3595 12.4622 13.3718 12.4433 13.3797 12.4217C13.3884 12.3968 13.393 12.3669 13.393 12.3327V12.2431C13.393 12.1714 13.3701 12.1193 13.3243 12.0867C13.2961 12.0668 13.2646 12.0512 13.231 12.0412C13.1968 12.0306 13.1583 12.0256 13.1158 12.0256H12.7201C12.4217 12.0256 12.1574 11.9921 11.927 11.9254C11.6926 11.8573 11.4948 11.7548 11.3334 11.618C11.1688 11.4775 11.0456 11.2913 10.9646 11.0599C10.8853 10.8345 10.8457 10.5666 10.8457 10.2559V10.0095C10.8457 9.72171 10.8899 9.46841 10.9775 9.24997C11.0665 9.02787 11.2006 8.84263 11.3792 8.69523C11.5087 8.58833 11.6312 8.50102 11.7763 8.43296C11.8991 8.3752 12.0366 8.33204 12.2062 8.30382V7.70195H13.4574V8.27959C13.6646 8.29586 13.8249 8.32474 14.0274 8.36159L14.1327 8.37985C14.2203 8.39545 14.308 8.41238 14.3946 8.43031C14.4759 8.44691 14.5543 8.4645 14.6287 8.48243L14.7136 8.50301V9.8618L14.5931 9.85085C14.4736 9.84089 14.3524 9.83159 14.2309 9.82396C14.0988 9.81599 13.963 9.80835 13.8246 9.80271C13.6799 9.7964 13.5437 9.79142 13.4179 9.78844C13.3017 9.78578 13.1786 9.78445 13.0488 9.78445C12.899 9.78445 12.6129 9.7881 12.4997 9.90131C12.429 9.97202 12.4263 10.1928 12.4635 10.2801C12.5193 10.4122 12.6925 10.4285 12.817 10.4285H13.31C13.4913 10.4285 13.6593 10.4461 13.8133 10.4813C13.9693 10.5165 14.1101 10.5702 14.2353 10.6413C14.4859 10.7844 14.6751 10.9789 14.8019 11.2249C14.8644 11.3458 14.9118 11.4759 14.943 11.6147C14.9742 11.7524 14.9902 11.8975 14.9902 12.0486V12.2952C14.9902 12.5386 14.9683 12.7553 14.9254 12.9452C14.8813 13.1384 14.8142 13.3034 14.7246 13.4392C14.635 13.5753 14.5261 13.6895 14.3979 13.7812C14.2704 13.8731 14.124 13.9428 13.9604 13.9893L13.9185 14.0013C13.7592 14.0471 13.6433 14.0806 13.4574 14.1008V14.7522H12.2062V14.1072ZM7.67136 19.4195V14.8667C9.9172 14.8667 10.299 14.7655 12.3234 16.0396H13.9142C14.6343 16.0824 15.0114 16.8128 14.3113 17.2922C13.7539 17.7015 13.0179 17.6783 12.2633 17.6105C11.7428 17.5846 11.7205 18.2838 12.2633 18.2861C12.4519 18.3011 12.6564 18.2566 12.835 18.2566C13.7761 18.2552 14.5516 18.0753 15.0264 17.3317L15.2644 16.7756L17.6307 15.6031C18.8146 15.2133 19.6568 16.4516 18.7837 17.3134C17.0697 18.56 15.3125 19.5858 13.5149 20.4144C12.2089 21.2089 10.9032 21.1813 9.5985 20.4144L7.67136 19.4195ZM4.16433 14.4292H7.05454V19.877H4.16433V14.4292Z"
              fill="currentColor"/>
    </g>
    <defs>
        <clipPath id="clip0_18_789">
            <rect width="16.7318" height="17" fill="white" transform="translate(4 4)"/>
        </clipPath>
    </defs>
</svg>
